<?xml version="1.0" encoding="UTF-8"?>
<svg xmlns="http://www.w3.org/2000/svg" viewBox="0 0 900 680">
<rect width="900" height="680" fill="white"/>

<!-- border -->
<rect x="20" y="20" width="860" height="570" fill="none" stroke="#0a0a1a" stroke-width="3"/>

<!-- ═══ OUTER WALLS ═══ -->
<g stroke="#0a0a1a" stroke-width="9" stroke-linecap="square" fill="none">
  <line x1="60" y1="65" x2="840" y2="65"/>
  <line x1="840" y1="65" x2="840" y2="555"/>
  <line x1="60" y1="555" x2="80" y2="555"/>
  <line x1="124" y1="555" x2="840" y2="555"/>
  <line x1="60" y1="65" x2="60" y2="555"/>
</g>

<!-- ═══ INTERIOR WALLS ═══ -->
<g stroke="#0a0a1a" stroke-width="7" stroke-linecap="square" fill="none">
  <!-- Vestibule right wall -->
  <line x1="148" y1="65" x2="148" y2="176"/>
  <line x1="148" y1="220" x2="148" y2="555"/>
  <!-- Main horizontal split -->
  <line x1="148" y1="290" x2="444" y2="290"/>
  <line x1="488" y1="290" x2="840" y2="290"/>
  <!-- Office 101 left wall -->
  <line x1="560" y1="65" x2="560" y2="246"/>
  <!-- Conf/Corridor split -->
  <line x1="344" y1="290" x2="344" y2="318"/>
  <line x1="344" y1="362" x2="344" y2="555"/>
  <!-- Corridor/Open split -->
  <line x1="560" y1="290" x2="560" y2="368"/>
  <line x1="560" y1="412" x2="560" y2="555"/>
  <!-- Restroom divider -->
  <line x1="148" y1="428" x2="196" y2="428"/>
  <line x1="240" y1="428" x2="344" y2="428"/>
</g>

<!-- ═══ WINDOWS ═══ -->
<g stroke="#0a0a1a" fill="none">
  <!-- top wall windows -->
  <line x1="200" y1="59" x2="200" y2="71" stroke-width="2.5"/><line x1="310" y1="59" x2="310" y2="71" stroke-width="2.5"/>
  <line x1="200" y1="62" x2="310" y2="62" stroke-width="2"/><line x1="200" y1="68" x2="310" y2="68" stroke-width="2"/>
  <line x1="255" y1="59" x2="255" y2="71" stroke-width="1"/>

  <line x1="390" y1="59" x2="390" y2="71" stroke-width="2.5"/><line x1="500" y1="59" x2="500" y2="71" stroke-width="2.5"/>
  <line x1="390" y1="62" x2="500" y2="62" stroke-width="2"/><line x1="390" y1="68" x2="500" y2="68" stroke-width="2"/>
  <line x1="445" y1="59" x2="445" y2="71" stroke-width="1"/>

  <line x1="600" y1="59" x2="600" y2="71" stroke-width="2.5"/><line x1="720" y1="59" x2="720" y2="71" stroke-width="2.5"/>
  <line x1="600" y1="62" x2="720" y2="62" stroke-width="2"/><line x1="600" y1="68" x2="720" y2="68" stroke-width="2"/>
  <line x1="660" y1="59" x2="660" y2="71" stroke-width="1"/>

  <!-- right wall window -->
  <line x1="833" y1="330" x2="847" y2="330" stroke-width="2.5"/><line x1="833" y1="460" x2="847" y2="460" stroke-width="2.5"/>
  <line x1="836" y1="330" x2="836" y2="460" stroke-width="2"/><line x1="844" y1="330" x2="844" y2="460" stroke-width="2"/>
  <line x1="833" y1="395" x2="847" y2="395" stroke-width="1"/>
</g>

<!-- ═══ DOORS ═══ -->
<g stroke="#0a0a1a" fill="none" stroke-width="2.5">
  <line x1="80" y1="555" x2="80" y2="511"/><path d="M 80 511 A 44 44 0 0 1 124 555"/>
  <line x1="148" y1="176" x2="192" y2="176"/><path d="M 192 176 A 44 44 0 0 1 148 220"/>
  <line x1="444" y1="290" x2="444" y2="246"/><path d="M 444 246 A 44 44 0 0 1 488 290"/>
  <line x1="560" y1="290" x2="516" y2="290"/><path d="M 516 290 A 44 44 0 0 0 560 246"/>
  <line x1="344" y1="318" x2="300" y2="318"/><path d="M 300 318 A 44 44 0 0 0 344 362"/>
  <line x1="196" y1="428" x2="196" y2="384"/><path d="M 196 384 A 44 44 0 0 1 240 428"/>
  <line x1="560" y1="368" x2="516" y2="368"/><path d="M 516 368 A 44 44 0 0 0 560 412"/>
</g>

<!-- ═══ ROOM LABELS ═══ -->
<text transform="rotate(-90,104,310)" x="104" y="310" text-anchor="middle" font-family="Arial,sans-serif" font-size="11" font-weight="bold" fill="#0a0a1a">VESTIBULE</text>
<text x="354" y="167" text-anchor="middle" font-family="Arial,sans-serif" font-size="18" font-weight="bold" fill="#0a0a1a">LOBBY &amp; RECEPTION</text>
<text x="354" y="188" text-anchor="middle" font-family="Arial,sans-serif" font-size="12" fill="#2a2a4a">ROOM 100  ·  924 SF</text>
<text x="700" y="167" text-anchor="middle" font-family="Arial,sans-serif" font-size="17" font-weight="bold" fill="#0a0a1a">OFFICE 101</text>
<text x="700" y="187" text-anchor="middle" font-family="Arial,sans-serif" font-size="12" fill="#2a2a4a">616 SF</text>
<text x="246" y="346" text-anchor="middle" font-family="Arial,sans-serif" font-size="14" font-weight="bold" fill="#0a0a1a">CONFERENCE</text>
<text x="246" y="364" text-anchor="middle" font-family="Arial,sans-serif" font-size="14" font-weight="bold" fill="#0a0a1a">ROOM 102</text>
<text x="246" y="380" text-anchor="middle" font-family="Arial,sans-serif" font-size="11" fill="#2a2a4a">280 SF</text>
<text x="246" y="480" text-anchor="middle" font-family="Arial,sans-serif" font-size="13" font-weight="bold" fill="#0a0a1a">RESTROOM 104</text>
<text transform="rotate(-90,452,422)" x="452" y="422" text-anchor="middle" font-family="Arial,sans-serif" font-size="13" font-weight="bold" fill="#0a0a1a">CORRIDOR</text>
<text x="700" y="405" text-anchor="middle" font-family="Arial,sans-serif" font-size="17" font-weight="bold" fill="#0a0a1a">OPEN WORKSPACE</text>
<text x="700" y="425" text-anchor="middle" font-family="Arial,sans-serif" font-size="12" fill="#2a2a4a">ROOM 103  ·  784 SF</text>

<!-- dimension lines -->
<g stroke="#444" stroke-width="0.8">
  <line x1="60" y1="45" x2="840" y2="45"/>
  <line x1="60" y1="40" x2="60" y2="50"/><line x1="148" y1="40" x2="148" y2="50"/>
  <line x1="560" y1="40" x2="560" y2="50"/><line x1="840" y1="40" x2="840" y2="50"/>
  <line x1="42" y1="65" x2="42" y2="555"/>
  <line x1="37" y1="65" x2="47" y2="65"/><line x1="37" y1="290" x2="47" y2="290"/><line x1="37" y1="555" x2="47" y2="555"/>
</g>
<text x="104" y="38" text-anchor="middle" font-family="Arial,sans-serif" font-size="9" fill="#444">8'-0"</text>
<text x="354" y="38" text-anchor="middle" font-family="Arial,sans-serif" font-size="9" fill="#444">41'-4"</text>
<text x="700" y="38" text-anchor="middle" font-family="Arial,sans-serif" font-size="9" fill="#444">28'-0"</text>
<text x="35" y="182" text-anchor="middle" font-family="Arial,sans-serif" font-size="9" fill="#444" transform="rotate(-90,35,182)">22'-6"</text>
<text x="35" y="422" text-anchor="middle" font-family="Arial,sans-serif" font-size="9" fill="#444" transform="rotate(-90,35,422)">26'-6"</text>

<!-- ═══ TITLE BLOCK ═══ -->
<rect x="20" y="590" width="860" height="76" fill="#f0f4ff"/>
<line x1="20" y1="590" x2="880" y2="590" stroke="#0a0a1a" stroke-width="2.5"/>
<line x1="590" y1="590" x2="590" y2="666" stroke="#888" stroke-width="1"/>
<line x1="740" y1="590" x2="740" y2="666" stroke="#888" stroke-width="1"/>
<text x="305" y="611" text-anchor="middle" font-family="Arial,sans-serif" font-size="7" letter-spacing="2" fill="#666">PROJECT</text>
<text x="305" y="628" text-anchor="middle" font-family="Arial,sans-serif" font-size="13" font-weight="bold" fill="#0a0a1a">LINARC OFFICE COMPLEX</text>
<text x="305" y="644" text-anchor="middle" font-family="Arial,sans-serif" font-size="10" fill="#444">1200 Innovation Blvd, Building A</text>
<text x="665" y="608" text-anchor="middle" font-family="Arial,sans-serif" font-size="7" letter-spacing="1" fill="#666">DRAWING TITLE</text>
<text x="665" y="625" text-anchor="middle" font-family="Arial,sans-serif" font-size="12" font-weight="bold" fill="#0a0a1a">FLOOR PLAN — LEVEL 1</text>
<text x="665" y="641" text-anchor="middle" font-family="Arial,sans-serif" font-size="10" fill="#444">Scale: 1/8" = 1'-0"</text>
<text x="810" y="608" text-anchor="middle" font-family="Arial,sans-serif" font-size="7" letter-spacing="1" fill="#666">DWG NO. / REV</text>
<text x="810" y="628" text-anchor="middle" font-family="Arial,sans-serif" font-size="19" font-weight="bold" fill="#0a0a1a">A-1.0</text>
<text x="810" y="644" text-anchor="middle" font-family="Arial,sans-serif" font-size="9" fill="#444">INITIAL RELEASE  ·  2024-07-10</text>

<!-- north arrow -->
<g transform="translate(830,100)">
  <circle cx="0" cy="0" r="16" fill="none" stroke="#0a0a1a" stroke-width="1.5"/>
  <polygon points="0,-12 -4,6 0,2 4,6" fill="#0a0a1a"/>
  <text x="0" y="-18" text-anchor="middle" font-family="Arial,sans-serif" font-size="11" font-weight="bold" fill="#0a0a1a">N</text>
</g>
</svg>
